<svg id="图层_1" data-name="图层 1" xmlns="http://www.w3.org/2000/svg" xmlns:xlink="http://www.w3.org/1999/xlink" viewBox="0 0 418.06 104.55"><defs><style>.cls-1{fill:none;}.cls-2{fill:#f4d73f;}.cls-3{fill:#0c8f4f;}.cls-4{fill:#35ae57;}.cls-5{clip-path:url(#clip-path);}.cls-6{fill:#41b051;}.cls-7{fill:#40b051;}.cls-8{fill:#40af51;}.cls-9{fill:#3faf51;}.cls-10{fill:#3faf52;}.cls-11{fill:#3eaf52;}.cls-12{fill:#3eae52;}.cls-13{fill:#3dae52;}.cls-14{fill:#3cae52;}.cls-15{fill:#3cad52;}.cls-16{fill:#3bad52;}.cls-17{fill:#3aad53;}.cls-18{fill:#3aac53;}.cls-19{fill:#39ac53;}.cls-20{fill:#38ac53;}.cls-21{fill:#38ab53;}.cls-22{fill:#37ab53;}.cls-23{fill:#36ab53;}.cls-24{fill:#36aa53;}.cls-25{fill:#36aa54;}.cls-26{fill:#35aa54;}.cls-27{fill:#34aa54;}.cls-28{fill:#34a954;}.cls-29{fill:#33a954;}.cls-30{fill:#32a854;}.cls-31{fill:#31a854;}.cls-32{fill:#31a855;}.cls-33{fill:#30a855;}.cls-34{fill:#30a755;}.cls-35{fill:#2fa755;}.cls-36{fill:#2ea655;}.cls-37{fill:#2da655;}.cls-38{fill:#2da656;}.cls-39{fill:#2ca556;}.cls-40{fill:#2ba556;}.cls-41{fill:#2aa456;}.cls-42{fill:#29a456;}.cls-43{fill:#28a357;}.cls-44{fill:#27a357;}.cls-45{fill:#26a257;}.cls-46{fill:#25a257;}.cls-47{fill:#24a157;}.cls-48{fill:#24a158;}.cls-49{fill:#23a158;}.cls-50{fill:#22a058;}.cls-51{fill:#21a058;}.cls-52{fill:#209f58;}.cls-53{fill:#1f9f59;}.cls-54{fill:#1f9e59;}.cls-55{fill:#1e9e59;}.cls-56{fill:#1d9e59;}.cls-57{fill:#1d9d59;}.cls-58{fill:#1c9d59;}.cls-59{fill:#1b9d59;}.cls-60{fill:#1b9c5a;}.cls-61{fill:#1a9c5a;}.cls-62{fill:#199c5a;}.cls-63{fill:#199b5a;}.cls-64{fill:#189b5a;}.cls-65{fill:#179b5a;}.cls-66{fill:#179a5a;}.cls-67{fill:#169a5b;}.cls-68{fill:#159a5b;}.cls-69{fill:#15995b;}.cls-70{fill:#14995b;}.cls-71{fill:#13995b;}.cls-72{fill:#13985b;}.cls-73{fill:#12985c;}.cls-74{fill:#11985c;}.cls-75{fill:#11975c;}.cls-76{fill:#10975c;}.cls-77{clip-path:url(#clip-path-2);}</style><clipPath id="clip-path"><path class="cls-1" d="M99.48,74.91c.06-.14-.13-.27-.22-.15-2.9,3.78-13.07,15.6-28.22,17.3C53,94.09,41.13,87.4,27.4,73.79a22,22,0,0,0-6.31-4.17A12.07,12.07,0,0,0,9.2,71.42h0a17.36,17.36,0,0,0-3.51,4.51.13.13,0,0,0,0,.12A52.17,52.17,0,0,0,52.37,104.6c.9,0,1.78,0,2.68-.06A52.32,52.32,0,0,0,99.48,74.91Z"/></clipPath><clipPath id="clip-path-2"><path class="cls-1" d="M5.11,29.67a.13.13,0,0,0,.22.14C8.2,26.06,18.38,14.19,33.56,12.49c18.07-2,29.92,4.66,43.64,18.27a21.88,21.88,0,0,0,6.31,4.17,12.07,12.07,0,0,0,11.89-1.8h0a17.8,17.8,0,0,0,3.5-4.52.13.13,0,0,0,0-.12A52.18,52.18,0,0,0,52.23,0c-.9,0-1.78,0-2.67.05A52.35,52.35,0,0,0,5.11,29.67Z"/></clipPath></defs><title>logo规范建议0513</title><circle class="cls-2" cx="52.31" cy="52.27" r="52.31"/><path class="cls-3" d="M52.29,29.49a5.17,5.17,0,0,1,5.16,5.17V47.1H69.89a5.16,5.16,0,0,1,5.17,5.17h0a5.16,5.16,0,0,1-5.17,5.16H57.45V69.87a5.17,5.17,0,1,1-10.33,0V57.43H34.68a5.17,5.17,0,0,1-5.17-5.16h0a5.17,5.17,0,0,1,5.17-5.17H47.12V34.66a5.17,5.17,0,0,1,5.17-5.17m0-.51a5.69,5.69,0,0,0-5.68,5.68V46.59H34.68a5.68,5.68,0,1,0,0,11.35H46.61V69.87a5.68,5.68,0,1,0,11.35,0V57.94H69.89a5.68,5.68,0,1,0,0-11.35H58V34.66A5.69,5.69,0,0,0,52.29,29Z"/><path class="cls-4" d="M69.93,47.09H57.46V34.62a5.18,5.18,0,0,0-10.35,0V47.09H34.64a5.17,5.17,0,0,0-5.17,5.18h0a5.17,5.17,0,0,0,5.17,5.17H47.11V69.91a5.18,5.18,0,0,0,10.35,0V57.44H69.93a5.17,5.17,0,0,0,5.17-5.17h0A5.17,5.17,0,0,0,69.93,47.09Z"/><g class="cls-5"><rect class="cls-6" x="5.67" y="67.48" width="93.87" height="1.32"/><rect class="cls-6" x="5.67" y="68.8" width="93.87" height="0.19"/><rect class="cls-6" x="5.67" y="68.99" width="93.87" height="0.19"/><rect class="cls-6" x="5.67" y="69.18" width="93.87" height="0.19"/><rect class="cls-6" x="5.67" y="69.36" width="93.87" height="0.19"/><rect class="cls-6" x="5.67" y="69.55" width="93.87" height="0.19"/><rect class="cls-6" x="5.67" y="69.74" width="93.87" height="0.19"/><rect class="cls-6" x="5.67" y="69.92" width="93.87" height="0.19"/><rect class="cls-6" x="5.67" y="70.11" width="93.87" height="0.19"/><rect class="cls-6" x="5.67" y="70.29" width="93.87" height="0.19"/><rect class="cls-6" x="5.67" y="70.48" width="93.87" height="0.19"/><rect class="cls-6" x="5.67" y="70.67" width="93.87" height="0.19"/><rect class="cls-6" x="5.67" y="70.85" width="93.87" height="0.19"/><rect class="cls-6" x="5.67" y="71.04" width="93.87" height="0.19"/><rect class="cls-7" x="5.67" y="71.23" width="93.87" height="0.19"/><rect class="cls-7" x="5.67" y="71.41" width="93.87" height="0.19"/><rect class="cls-7" x="5.67" y="71.6" width="93.87" height="0.19"/><rect class="cls-7" x="5.67" y="71.79" width="93.87" height="0.19"/><rect class="cls-7" x="5.67" y="71.97" width="93.87" height="0.19"/><rect class="cls-7" x="5.67" y="72.16" width="93.87" height="0.19"/><rect class="cls-7" x="5.67" y="72.35" width="93.87" height="0.19"/><rect class="cls-8" x="5.67" y="72.53" width="93.87" height="0.19"/><rect class="cls-8" x="5.67" y="72.72" width="93.87" height="0.19"/><rect class="cls-8" x="5.67" y="72.9" width="93.87" height="0.19"/><rect class="cls-8" x="5.67" y="73.09" width="93.87" height="0.19"/><rect class="cls-8" x="5.67" y="73.28" width="93.87" height="0.19"/><rect class="cls-9" x="5.67" y="73.46" width="93.87" height="0.19"/><rect class="cls-9" x="5.67" y="73.65" width="93.87" height="0.19"/><rect class="cls-9" x="5.67" y="73.84" width="93.87" height="0.19"/><rect class="cls-9" x="5.67" y="74.02" width="93.87" height="0.19"/><rect class="cls-9" x="5.67" y="74.21" width="93.87" height="0.19"/><rect class="cls-9" x="5.67" y="74.4" width="93.87" height="0.19"/><rect class="cls-10" x="5.67" y="74.58" width="93.87" height="0.19"/><rect class="cls-10" x="5.67" y="74.77" width="93.87" height="0.19"/><rect class="cls-10" x="5.67" y="74.96" width="93.87" height="0.19"/><rect class="cls-11" x="5.67" y="75.14" width="93.87" height="0.19"/><rect class="cls-11" x="5.67" y="75.33" width="93.87" height="0.19"/><rect class="cls-11" x="5.67" y="75.51" width="93.87" height="0.19"/><rect class="cls-12" x="5.67" y="75.7" width="93.87" height="0.19"/><rect class="cls-12" x="5.67" y="75.89" width="93.87" height="0.19"/><rect class="cls-12" x="5.67" y="76.07" width="93.87" height="0.19"/><rect class="cls-12" x="5.67" y="76.26" width="93.87" height="0.19"/><rect class="cls-13" x="5.67" y="76.45" width="93.87" height="0.19"/><rect class="cls-13" x="5.67" y="76.63" width="93.87" height="0.19"/><rect class="cls-13" x="5.67" y="76.82" width="93.87" height="0.19"/><rect class="cls-13" x="5.67" y="77.01" width="93.87" height="0.19"/><rect class="cls-13" x="5.67" y="77.19" width="93.87" height="0.19"/><rect class="cls-13" x="5.67" y="77.38" width="93.87" height="0.19"/><rect class="cls-14" x="5.67" y="77.57" width="93.87" height="0.19"/><rect class="cls-14" x="5.67" y="77.75" width="93.87" height="0.19"/><rect class="cls-14" x="5.67" y="77.94" width="93.87" height="0.19"/><rect class="cls-15" x="5.67" y="78.12" width="93.87" height="0.19"/><rect class="cls-15" x="5.67" y="78.31" width="93.87" height="0.19"/><rect class="cls-15" x="5.67" y="78.5" width="93.87" height="0.19"/><rect class="cls-16" x="5.67" y="78.68" width="93.87" height="0.19"/><rect class="cls-16" x="5.67" y="78.87" width="93.87" height="0.19"/><rect class="cls-16" x="5.67" y="79.06" width="93.87" height="0.19"/><rect class="cls-16" x="5.67" y="79.24" width="93.87" height="0.19"/><rect class="cls-16" x="5.67" y="79.43" width="93.87" height="0.19"/><rect class="cls-16" x="5.67" y="79.62" width="93.87" height="0.19"/><rect class="cls-17" x="5.67" y="79.8" width="93.87" height="0.19"/><rect class="cls-18" x="5.67" y="79.99" width="93.87" height="0.19"/><rect class="cls-18" x="5.67" y="80.18" width="93.87" height="0.19"/><rect class="cls-18" x="5.67" y="80.36" width="93.87" height="0.19"/><rect class="cls-18" x="5.67" y="80.55" width="93.87" height="0.19"/><rect class="cls-19" x="5.67" y="80.73" width="93.87" height="0.19"/><rect class="cls-19" x="5.67" y="80.92" width="93.87" height="0.19"/><rect class="cls-19" x="5.67" y="81.11" width="93.87" height="0.19"/><rect class="cls-19" x="5.67" y="81.29" width="93.87" height="0.19"/><rect class="cls-20" x="5.67" y="81.48" width="93.87" height="0.19"/><rect class="cls-20" x="5.67" y="81.67" width="93.87" height="0.19"/><rect class="cls-21" x="5.67" y="81.85" width="93.87" height="0.19"/><rect class="cls-21" x="5.67" y="82.04" width="93.87" height="0.19"/><rect class="cls-21" x="5.67" y="82.23" width="93.87" height="0.19"/><rect class="cls-22" x="5.67" y="82.41" width="93.87" height="0.19"/><rect class="cls-22" x="5.67" y="82.6" width="93.87" height="0.19"/><rect class="cls-22" x="5.67" y="82.79" width="93.87" height="0.19"/><rect class="cls-22" x="5.67" y="82.97" width="93.87" height="0.19"/><rect class="cls-22" x="5.67" y="83.16" width="93.87" height="0.19"/><rect class="cls-23" x="5.67" y="83.34" width="93.87" height="0.19"/><rect class="cls-24" x="5.67" y="83.53" width="93.87" height="0.19"/><rect class="cls-25" x="5.67" y="83.72" width="93.87" height="0.19"/><rect class="cls-25" x="5.67" y="83.9" width="93.87" height="0.19"/><rect class="cls-26" x="5.67" y="84.09" width="93.87" height="0.19"/><rect class="cls-26" x="5.67" y="84.28" width="93.87" height="0.19"/><rect class="cls-26" x="5.67" y="84.46" width="93.87" height="0.19"/><rect class="cls-26" x="5.67" y="84.65" width="93.87" height="0.19"/><rect class="cls-27" x="5.67" y="84.84" width="93.87" height="0.19"/><rect class="cls-28" x="5.67" y="85.02" width="93.87" height="0.19"/><rect class="cls-28" x="5.67" y="85.21" width="93.87" height="0.19"/><rect class="cls-28" x="5.67" y="85.4" width="93.87" height="0.19"/><rect class="cls-29" x="5.67" y="85.58" width="93.87" height="0.19"/><rect class="cls-29" x="5.67" y="85.77" width="93.87" height="0.19"/><rect class="cls-29" x="5.67" y="85.95" width="93.87" height="0.19"/><rect class="cls-29" x="5.67" y="86.14" width="93.87" height="0.19"/><rect class="cls-30" x="5.67" y="86.33" width="93.87" height="0.19"/><rect class="cls-30" x="5.67" y="86.51" width="93.87" height="0.19"/><rect class="cls-30" x="5.67" y="86.7" width="93.87" height="0.19"/><rect class="cls-31" x="5.67" y="86.89" width="93.87" height="0.19"/><rect class="cls-32" x="5.67" y="87.07" width="93.87" height="0.19"/><rect class="cls-32" x="5.67" y="87.26" width="93.87" height="0.19"/><rect class="cls-32" x="5.67" y="87.45" width="93.87" height="0.19"/><rect class="cls-33" x="5.67" y="87.63" width="93.87" height="0.19"/><rect class="cls-34" x="5.67" y="87.82" width="93.87" height="0.19"/><rect class="cls-34" x="5.67" y="88.01" width="93.87" height="0.19"/><rect class="cls-34" x="5.67" y="88.19" width="93.87" height="0.19"/><rect class="cls-35" x="5.67" y="88.38" width="93.87" height="0.19"/><rect class="cls-35" x="5.67" y="88.56" width="93.87" height="0.19"/><rect class="cls-35" x="5.67" y="88.75" width="93.87" height="0.19"/><rect class="cls-36" x="5.67" y="88.94" width="93.87" height="0.19"/><rect class="cls-36" x="5.67" y="89.12" width="93.87" height="0.19"/><rect class="cls-36" x="5.67" y="89.31" width="93.87" height="0.19"/><rect class="cls-37" x="5.67" y="89.5" width="93.87" height="0.19"/><rect class="cls-37" x="5.67" y="89.68" width="93.87" height="0.19"/><rect class="cls-38" x="5.67" y="89.87" width="93.87" height="0.19"/><rect class="cls-38" x="5.67" y="90.06" width="93.87" height="0.19"/><rect class="cls-39" x="5.67" y="90.24" width="93.87" height="0.19"/><rect class="cls-39" x="5.67" y="90.43" width="93.87" height="0.19"/><rect class="cls-39" x="5.67" y="90.62" width="93.87" height="0.19"/><rect class="cls-40" x="5.67" y="90.8" width="93.87" height="0.19"/><rect class="cls-40" x="5.67" y="90.99" width="93.87" height="0.19"/><rect class="cls-40" x="5.67" y="91.17" width="93.87" height="0.19"/><rect class="cls-41" x="5.67" y="91.36" width="93.87" height="0.19"/><rect class="cls-41" x="5.67" y="91.55" width="93.87" height="0.19"/><rect class="cls-41" x="5.67" y="91.73" width="93.87" height="0.19"/><rect class="cls-42" x="5.67" y="91.92" width="93.87" height="0.19"/><rect class="cls-42" x="5.67" y="92.11" width="93.87" height="0.19"/><rect class="cls-42" x="5.67" y="92.29" width="93.87" height="0.19"/><rect class="cls-43" x="5.67" y="92.48" width="93.87" height="0.19"/><rect class="cls-43" x="5.67" y="92.67" width="93.87" height="0.19"/><rect class="cls-43" x="5.67" y="92.85" width="93.87" height="0.19"/><rect class="cls-44" x="5.67" y="93.04" width="93.87" height="0.19"/><rect class="cls-44" x="5.67" y="93.23" width="93.87" height="0.19"/><rect class="cls-44" x="5.67" y="93.41" width="93.87" height="0.19"/><rect class="cls-45" x="5.67" y="93.6" width="93.87" height="0.19"/><rect class="cls-45" x="5.67" y="93.78" width="93.87" height="0.19"/><rect class="cls-45" x="5.67" y="93.97" width="93.87" height="0.19"/><rect class="cls-46" x="5.67" y="94.16" width="93.87" height="0.19"/><rect class="cls-46" x="5.67" y="94.34" width="93.87" height="0.19"/><rect class="cls-46" x="5.67" y="94.53" width="93.87" height="0.19"/><rect class="cls-47" x="5.67" y="94.72" width="93.87" height="0.19"/><rect class="cls-47" x="5.67" y="94.9" width="93.87" height="0.19"/><rect class="cls-48" x="5.67" y="95.09" width="93.87" height="0.19"/><rect class="cls-49" x="5.67" y="95.28" width="93.87" height="0.19"/><rect class="cls-49" x="5.67" y="95.46" width="93.87" height="0.19"/><rect class="cls-49" x="5.67" y="95.65" width="93.87" height="0.19"/><rect class="cls-50" x="5.67" y="95.84" width="93.87" height="0.19"/><rect class="cls-50" x="5.67" y="96.02" width="93.87" height="0.19"/><rect class="cls-50" x="5.67" y="96.21" width="93.87" height="0.19"/><rect class="cls-51" x="5.67" y="96.39" width="93.87" height="0.19"/><rect class="cls-51" x="5.67" y="96.58" width="93.87" height="0.19"/><rect class="cls-52" x="5.67" y="96.77" width="93.87" height="0.19"/><rect class="cls-52" x="5.67" y="96.95" width="93.87" height="0.19"/><rect class="cls-52" x="5.67" y="97.14" width="93.87" height="0.19"/><rect class="cls-53" x="5.67" y="97.33" width="93.87" height="0.19"/><rect class="cls-53" x="5.67" y="97.51" width="93.87" height="0.19"/><rect class="cls-54" x="5.67" y="97.7" width="93.87" height="0.19"/><rect class="cls-55" x="5.67" y="97.89" width="93.87" height="0.19"/><rect class="cls-55" x="5.67" y="98.07" width="93.87" height="0.19"/><rect class="cls-56" x="5.67" y="98.26" width="93.87" height="0.19"/><rect class="cls-56" x="5.67" y="98.45" width="93.87" height="0.19"/><rect class="cls-57" x="5.67" y="98.63" width="93.87" height="0.19"/><rect class="cls-58" x="5.67" y="98.82" width="93.87" height="0.19"/><rect class="cls-58" x="5.67" y="99" width="93.87" height="0.19"/><rect class="cls-58" x="5.67" y="99.19" width="93.87" height="0.19"/><rect class="cls-59" x="5.67" y="99.38" width="93.87" height="0.19"/><rect class="cls-60" x="5.67" y="99.56" width="93.87" height="0.19"/><rect class="cls-61" x="5.67" y="99.75" width="93.87" height="0.19"/><rect class="cls-61" x="5.67" y="99.94" width="93.87" height="0.19"/><rect class="cls-61" x="5.67" y="100.12" width="93.87" height="0.19"/><rect class="cls-62" x="5.67" y="100.31" width="93.87" height="0.19"/><rect class="cls-63" x="5.67" y="100.5" width="93.87" height="0.19"/><rect class="cls-64" x="5.67" y="100.68" width="93.87" height="0.19"/><rect class="cls-64" x="5.67" y="100.87" width="93.87" height="0.19"/><rect class="cls-64" x="5.67" y="101.06" width="93.87" height="0.19"/><rect class="cls-65" x="5.67" y="101.24" width="93.87" height="0.19"/><rect class="cls-66" x="5.67" y="101.43" width="93.87" height="0.19"/><rect class="cls-67" x="5.67" y="101.61" width="93.87" height="0.19"/><rect class="cls-67" x="5.67" y="101.8" width="93.87" height="0.19"/><rect class="cls-67" x="5.67" y="101.99" width="93.87" height="0.19"/><rect class="cls-68" x="5.67" y="102.17" width="93.87" height="0.19"/><rect class="cls-69" x="5.67" y="102.36" width="93.87" height="0.19"/><rect class="cls-70" x="5.67" y="102.55" width="93.87" height="0.19"/><rect class="cls-70" x="5.67" y="102.73" width="93.87" height="0.19"/><rect class="cls-71" x="5.67" y="102.92" width="93.87" height="0.19"/><rect class="cls-71" x="5.67" y="103.11" width="93.87" height="0.19"/><rect class="cls-72" x="5.67" y="103.29" width="93.87" height="0.19"/><rect class="cls-73" x="5.67" y="103.48" width="93.87" height="0.19"/><rect class="cls-73" x="5.67" y="103.67" width="93.87" height="0.19"/><rect class="cls-74" x="5.67" y="103.85" width="93.87" height="0.19"/><rect class="cls-75" x="5.67" y="104.04" width="93.87" height="0.19"/><rect class="cls-76" x="5.67" y="104.22" width="93.87" height="0.19"/><rect class="cls-76" x="5.67" y="104.41" width="93.87" height="0.19"/></g><g class="cls-77"><polygon class="cls-6" points="98.93 0.14 5.05 0.14 5.05 -0.04 72.61 -0.04 98.93 -0.04 98.93 0.14"/><rect class="cls-6" x="5.05" y="0.14" width="93.88" height="0.19"/><rect class="cls-6" x="5.05" y="0.33" width="93.88" height="0.19"/><rect class="cls-6" x="5.05" y="0.52" width="93.88" height="0.19"/><rect class="cls-6" x="5.05" y="0.7" width="93.88" height="0.19"/><rect class="cls-6" x="5.05" y="0.89" width="93.88" height="0.19"/><rect class="cls-6" x="5.05" y="1.07" width="93.88" height="0.19"/><rect class="cls-6" x="5.05" y="1.26" width="93.88" height="0.19"/><rect class="cls-6" x="5.05" y="1.45" width="93.88" height="0.19"/><rect class="cls-6" x="5.05" y="1.63" width="93.88" height="0.19"/><rect class="cls-6" x="5.05" y="1.82" width="93.88" height="0.19"/><rect class="cls-6" x="5.05" y="2.01" width="93.88" height="0.19"/><rect class="cls-6" x="5.05" y="2.19" width="93.88" height="0.19"/><rect class="cls-7" x="5.05" y="2.38" width="93.88" height="0.19"/><rect class="cls-7" x="5.05" y="2.57" width="93.88" height="0.19"/><rect class="cls-7" x="5.05" y="2.75" width="93.88" height="0.19"/><rect class="cls-7" x="5.05" y="2.94" width="93.88" height="0.19"/><rect class="cls-7" x="5.05" y="3.13" width="93.88" height="0.19"/><rect class="cls-7" x="5.05" y="3.31" width="93.88" height="0.19"/><rect class="cls-7" x="5.05" y="3.5" width="93.88" height="0.19"/><rect class="cls-8" x="5.05" y="3.68" width="93.88" height="0.19"/><rect class="cls-8" x="5.05" y="3.87" width="93.88" height="0.19"/><rect class="cls-8" x="5.05" y="4.06" width="93.88" height="0.19"/><rect class="cls-8" x="5.05" y="4.24" width="93.88" height="0.19"/><rect class="cls-8" x="5.05" y="4.43" width="93.88" height="0.19"/><rect class="cls-9" x="5.05" y="4.62" width="93.88" height="0.19"/><rect class="cls-9" x="5.05" y="4.8" width="93.88" height="0.19"/><rect class="cls-9" x="5.05" y="4.99" width="93.88" height="0.19"/><rect class="cls-9" x="5.05" y="5.18" width="93.88" height="0.19"/><rect class="cls-9" x="5.05" y="5.36" width="93.88" height="0.19"/><rect class="cls-9" x="5.05" y="5.55" width="93.88" height="0.19"/><rect class="cls-10" x="5.05" y="5.74" width="93.88" height="0.19"/><rect class="cls-10" x="5.05" y="5.92" width="93.88" height="0.19"/><rect class="cls-10" x="5.05" y="6.11" width="93.88" height="0.19"/><rect class="cls-11" x="5.05" y="6.29" width="93.88" height="0.19"/><rect class="cls-11" x="5.05" y="6.48" width="93.88" height="0.19"/><rect class="cls-11" x="5.05" y="6.67" width="93.88" height="0.19"/><rect class="cls-12" x="5.05" y="6.85" width="93.88" height="0.19"/><rect class="cls-12" x="5.05" y="7.04" width="93.88" height="0.19"/><rect class="cls-12" x="5.05" y="7.23" width="93.88" height="0.19"/><rect class="cls-12" x="5.05" y="7.41" width="93.88" height="0.19"/><rect class="cls-13" x="5.05" y="7.6" width="93.88" height="0.19"/><rect class="cls-13" x="5.05" y="7.79" width="93.88" height="0.19"/><rect class="cls-13" x="5.05" y="7.97" width="93.88" height="0.19"/><rect class="cls-13" x="5.05" y="8.16" width="93.88" height="0.19"/><rect class="cls-13" x="5.05" y="8.35" width="93.88" height="0.19"/><rect class="cls-13" x="5.05" y="8.53" width="93.88" height="0.19"/><rect class="cls-14" x="5.05" y="8.72" width="93.88" height="0.19"/><rect class="cls-14" x="5.05" y="8.9" width="93.88" height="0.19"/><rect class="cls-14" x="5.05" y="9.09" width="93.88" height="0.19"/><rect class="cls-15" x="5.05" y="9.28" width="93.88" height="0.19"/><rect class="cls-15" x="5.05" y="9.46" width="93.88" height="0.19"/><rect class="cls-15" x="5.05" y="9.65" width="93.88" height="0.19"/><rect class="cls-16" x="5.05" y="9.84" width="93.88" height="0.19"/><rect class="cls-16" x="5.05" y="10.02" width="93.88" height="0.19"/><rect class="cls-16" x="5.05" y="10.21" width="93.88" height="0.19"/><rect class="cls-16" x="5.05" y="10.4" width="93.88" height="0.19"/><rect class="cls-16" x="5.05" y="10.58" width="93.88" height="0.19"/><rect class="cls-16" x="5.05" y="10.77" width="93.88" height="0.19"/><rect class="cls-17" x="5.05" y="10.96" width="93.88" height="0.19"/><rect class="cls-18" x="5.05" y="11.14" width="93.88" height="0.19"/><rect class="cls-18" x="5.05" y="11.33" width="93.88" height="0.19"/><rect class="cls-18" x="5.05" y="11.51" width="93.88" height="0.19"/><rect class="cls-18" x="5.05" y="11.7" width="93.88" height="0.19"/><rect class="cls-19" x="5.05" y="11.89" width="93.88" height="0.19"/><rect class="cls-19" x="5.05" y="12.07" width="93.88" height="0.19"/><rect class="cls-19" x="5.05" y="12.26" width="93.88" height="0.19"/><rect class="cls-19" x="5.05" y="12.45" width="93.88" height="0.19"/><rect class="cls-20" x="5.05" y="12.63" width="93.88" height="0.19"/><rect class="cls-20" x="5.05" y="12.82" width="93.88" height="0.19"/><rect class="cls-21" x="5.05" y="13.01" width="93.88" height="0.19"/><rect class="cls-21" x="5.05" y="13.19" width="93.88" height="0.19"/><rect class="cls-21" x="5.05" y="13.38" width="93.88" height="0.19"/><rect class="cls-22" x="5.05" y="13.56" width="93.88" height="0.19"/><rect class="cls-22" x="5.05" y="13.75" width="93.88" height="0.19"/><rect class="cls-22" x="5.05" y="13.94" width="93.88" height="0.19"/><rect class="cls-22" x="5.05" y="14.12" width="93.88" height="0.19"/><rect class="cls-22" x="5.05" y="14.31" width="93.88" height="0.19"/><rect class="cls-23" x="5.05" y="14.5" width="93.88" height="0.19"/><rect class="cls-24" x="5.05" y="14.68" width="93.88" height="0.19"/><rect class="cls-25" x="5.05" y="14.87" width="93.88" height="0.19"/><rect class="cls-25" x="5.05" y="15.06" width="93.88" height="0.19"/><rect class="cls-26" x="5.05" y="15.24" width="93.88" height="0.19"/><rect class="cls-26" x="5.05" y="15.43" width="93.88" height="0.19"/><rect class="cls-26" x="5.05" y="15.62" width="93.88" height="0.19"/><rect class="cls-26" x="5.05" y="15.8" width="93.88" height="0.19"/><rect class="cls-27" x="5.05" y="15.99" width="93.88" height="0.19"/><rect class="cls-28" x="5.05" y="16.17" width="93.88" height="0.19"/><rect class="cls-28" x="5.05" y="16.36" width="93.88" height="0.19"/><rect class="cls-28" x="5.05" y="16.55" width="93.88" height="0.19"/><rect class="cls-29" x="5.05" y="16.73" width="93.88" height="0.19"/><rect class="cls-29" x="5.05" y="16.92" width="93.88" height="0.19"/><rect class="cls-29" x="5.05" y="17.11" width="93.88" height="0.19"/><rect class="cls-29" x="5.05" y="17.29" width="93.88" height="0.19"/><rect class="cls-30" x="5.05" y="17.48" width="93.88" height="0.19"/><rect class="cls-30" x="5.05" y="17.67" width="93.88" height="0.19"/><rect class="cls-30" x="5.05" y="17.85" width="93.88" height="0.19"/><rect class="cls-31" x="5.05" y="18.04" width="93.88" height="0.19"/><rect class="cls-32" x="5.05" y="18.23" width="93.88" height="0.19"/><rect class="cls-32" x="5.05" y="18.41" width="93.88" height="0.19"/><rect class="cls-32" x="5.05" y="18.6" width="93.88" height="0.19"/><rect class="cls-33" x="5.05" y="18.78" width="93.88" height="0.19"/><rect class="cls-34" x="5.05" y="18.97" width="93.88" height="0.19"/><rect class="cls-34" x="5.05" y="19.16" width="93.88" height="0.19"/><rect class="cls-34" x="5.05" y="19.34" width="93.88" height="0.19"/><rect class="cls-35" x="5.05" y="19.53" width="93.88" height="0.19"/><rect class="cls-35" x="5.05" y="19.72" width="93.88" height="0.19"/><rect class="cls-35" x="5.05" y="19.9" width="93.88" height="0.19"/><rect class="cls-36" x="5.05" y="20.09" width="93.88" height="0.19"/><rect class="cls-36" x="5.05" y="20.28" width="93.88" height="0.19"/><rect class="cls-36" x="5.05" y="20.46" width="93.88" height="0.19"/><rect class="cls-37" x="5.05" y="20.65" width="93.88" height="0.19"/><rect class="cls-37" x="5.05" y="20.84" width="93.88" height="0.19"/><rect class="cls-38" x="5.05" y="21.02" width="93.88" height="0.19"/><rect class="cls-38" x="5.05" y="21.21" width="93.88" height="0.19"/><rect class="cls-39" x="5.05" y="21.39" width="93.88" height="0.19"/><rect class="cls-39" x="5.05" y="21.58" width="93.88" height="0.19"/><rect class="cls-39" x="5.05" y="21.77" width="93.88" height="0.19"/><rect class="cls-40" x="5.05" y="21.95" width="93.88" height="0.19"/><rect class="cls-40" x="5.05" y="22.14" width="93.88" height="0.19"/><rect class="cls-40" x="5.05" y="22.33" width="93.88" height="0.19"/><rect class="cls-41" x="5.05" y="22.51" width="93.88" height="0.19"/><rect class="cls-41" x="5.05" y="22.7" width="93.88" height="0.19"/><rect class="cls-41" x="5.05" y="22.89" width="93.88" height="0.19"/><rect class="cls-42" x="5.05" y="23.07" width="93.88" height="0.19"/><rect class="cls-42" x="5.05" y="23.26" width="93.88" height="0.19"/><rect class="cls-42" x="5.05" y="23.45" width="93.88" height="0.19"/><rect class="cls-43" x="5.05" y="23.63" width="93.88" height="0.19"/><rect class="cls-43" x="5.05" y="23.82" width="93.88" height="0.19"/><rect class="cls-43" x="5.05" y="24" width="93.88" height="0.19"/><rect class="cls-44" x="5.05" y="24.19" width="93.88" height="0.19"/><rect class="cls-44" x="5.05" y="24.38" width="93.88" height="0.19"/><rect class="cls-44" x="5.05" y="24.56" width="93.88" height="0.19"/><rect class="cls-45" x="5.05" y="24.75" width="93.88" height="0.19"/><rect class="cls-45" x="5.05" y="24.94" width="93.88" height="0.19"/><rect class="cls-45" x="5.05" y="25.12" width="93.88" height="0.19"/><rect class="cls-46" x="5.05" y="25.31" width="93.88" height="0.19"/><rect class="cls-46" x="5.05" y="25.5" width="93.88" height="0.19"/><rect class="cls-46" x="5.05" y="25.68" width="93.88" height="0.19"/><rect class="cls-47" x="5.05" y="25.87" width="93.88" height="0.19"/><rect class="cls-47" x="5.05" y="26.06" width="93.88" height="0.19"/><rect class="cls-48" x="5.05" y="26.24" width="93.88" height="0.19"/><rect class="cls-49" x="5.05" y="26.43" width="93.88" height="0.19"/><rect class="cls-49" x="5.05" y="26.61" width="93.88" height="0.19"/><rect class="cls-49" x="5.05" y="26.8" width="93.88" height="0.19"/><rect class="cls-50" x="5.05" y="26.99" width="93.88" height="0.19"/><rect class="cls-50" x="5.05" y="27.17" width="93.88" height="0.19"/><rect class="cls-50" x="5.05" y="27.36" width="93.88" height="0.19"/><rect class="cls-51" x="5.05" y="27.55" width="93.88" height="0.19"/><rect class="cls-51" x="5.05" y="27.73" width="93.88" height="0.19"/><rect class="cls-52" x="5.05" y="27.92" width="93.88" height="0.19"/><rect class="cls-52" x="5.05" y="28.11" width="93.88" height="0.19"/><rect class="cls-52" x="5.05" y="28.29" width="93.88" height="0.19"/><rect class="cls-53" x="5.05" y="28.48" width="93.88" height="0.19"/><rect class="cls-53" x="5.05" y="28.67" width="93.88" height="0.19"/><rect class="cls-54" x="5.05" y="28.85" width="93.88" height="0.19"/><rect class="cls-55" x="5.05" y="29.04" width="93.88" height="0.19"/><rect class="cls-55" x="5.05" y="29.22" width="93.88" height="0.19"/><rect class="cls-56" x="5.05" y="29.41" width="93.88" height="0.19"/><rect class="cls-56" x="5.05" y="29.6" width="93.88" height="0.19"/><rect class="cls-57" x="5.05" y="29.78" width="93.88" height="0.19"/><rect class="cls-58" x="5.05" y="29.97" width="93.88" height="0.19"/><rect class="cls-58" x="5.05" y="30.16" width="93.88" height="0.19"/><rect class="cls-58" x="5.05" y="30.34" width="93.88" height="0.19"/><rect class="cls-59" x="5.05" y="30.53" width="93.88" height="0.19"/><rect class="cls-60" x="5.05" y="30.72" width="93.88" height="0.19"/><rect class="cls-61" x="5.05" y="30.9" width="93.88" height="0.19"/><rect class="cls-61" x="5.05" y="31.09" width="93.88" height="0.19"/><rect class="cls-61" x="5.05" y="31.28" width="93.88" height="0.19"/><rect class="cls-62" x="5.05" y="31.46" width="93.88" height="0.19"/><rect class="cls-63" x="5.05" y="31.65" width="93.88" height="0.19"/><rect class="cls-64" x="5.05" y="31.83" width="93.88" height="0.19"/><rect class="cls-64" x="5.05" y="32.02" width="93.88" height="0.19"/><rect class="cls-64" x="5.05" y="32.21" width="93.88" height="0.19"/><rect class="cls-65" x="5.05" y="32.39" width="93.88" height="0.19"/><rect class="cls-66" x="5.05" y="32.58" width="93.88" height="0.19"/><rect class="cls-67" x="5.05" y="32.77" width="93.88" height="0.19"/><rect class="cls-67" x="5.05" y="32.95" width="93.88" height="0.19"/><rect class="cls-67" x="5.05" y="33.14" width="93.88" height="0.19"/><rect class="cls-68" x="5.05" y="33.33" width="93.88" height="0.19"/><rect class="cls-69" x="5.05" y="33.51" width="93.88" height="0.19"/><rect class="cls-70" x="5.05" y="33.7" width="93.88" height="0.19"/><rect class="cls-70" x="5.05" y="33.89" width="93.88" height="0.19"/><rect class="cls-71" x="5.05" y="34.07" width="93.88" height="0.19"/><rect class="cls-71" x="5.05" y="34.26" width="93.88" height="0.19"/><rect class="cls-72" x="5.05" y="34.44" width="93.88" height="0.19"/><rect class="cls-73" x="5.05" y="34.63" width="93.88" height="0.19"/><rect class="cls-73" x="5.05" y="34.82" width="93.88" height="0.19"/><rect class="cls-74" x="5.05" y="35" width="93.88" height="0.19"/><rect class="cls-75" x="5.05" y="35.19" width="93.88" height="0.19"/><rect class="cls-76" x="5.05" y="35.38" width="93.88" height="0.19"/><rect class="cls-76" x="5.05" y="35.56" width="93.88" height="0.19"/><rect class="cls-76" x="5.05" y="35.75" width="93.88" height="1.32"/></g><path class="cls-4" d="M191.91,93.48a43.37,43.37,0,0,1-5.29-.28,41.75,41.75,0,0,1-4.41-.86c3.22-1.31,5-2,5.33-2.22a8.1,8.1,0,0,0,1.88-1.33,6.72,6.72,0,0,0,1.75-5V81.53h.65a2.5,2.5,0,0,0,2.51-2.5V77.76h-3.16v-2.3H187.3v2.3H167.09v-2.3h-3.87v2.3h-3l0,3.77h3l0,3.22a5,5,0,0,0,1.46,3.76,11.39,11.39,0,0,0,3.67,2.33l3.8,1.52a36,36,0,0,1-5.91.93c-1.74.12-3.73.19-5.95.19h-.25v3.63h.26c5.91-.09,10.35-.6,13.19-1.49.89-.28,2.11-.71,3.63-1.28,1.38.54,2.51.94,3.34,1.18a39.54,39.54,0,0,0,6.55,1.2,60.42,60.42,0,0,0,6.92.39h.24l.13-3.65h-.26Zm-4.61-9.69a3.65,3.65,0,0,1-2.56,3.61l-7.54,3.08-7.26-2.9a6.11,6.11,0,0,1-2.08-1.24,3,3,0,0,1-.75-2.15l0-2.66H187.3Z"/><path class="cls-4" d="M175.23,67v1.63l-10.07,0a5.52,5.52,0,0,0-3.52,1,4.32,4.32,0,0,0-1.59,3.5l-.05,2h3.87l0-1.41a1.13,1.13,0,0,1,.55-1.06,4.88,4.88,0,0,1,2.13-.33l21.88,0a2.12,2.12,0,0,1,1.61.64.88.88,0,0,1,.31.62l0,1.51h3.8v-2.3a3.93,3.93,0,0,0-1.47-3,6.1,6.1,0,0,0-4.05-1.18H179.1V67Z"/><path class="cls-4" d="M223.46,87.88H235a2.49,2.49,0,0,0,2.49-2.5V84.11h-14V80.17H235a2.49,2.49,0,0,0,2.49-2.5V76.4H205.59v3.77h14v3.94h-14v3.77h14v5.25H204.5V96.9h31.61a2.49,2.49,0,0,0,2.49-2.5V93.13H223.46Z"/><path class="cls-4" d="M204.5,72.47v3.65h.25c1.05,0,1.89,0,2.5-.06A5.22,5.22,0,0,0,211,74.2l1.77-2.09a4.1,4.1,0,0,1,1.2-1c.33-.18,1.23-.39,3.63-.39H227a6.47,6.47,0,0,1,1.89.34,3.42,3.42,0,0,1,1.58,1.14l1.87,2.16a5.12,5.12,0,0,0,3.56,1.64c.63,0,1.46.07,2.48.07h.25V72.47h-.25a9.87,9.87,0,0,1-2.39-.26,3.1,3.1,0,0,1-1.53-1.13l-1.8-2.31a4.11,4.11,0,0,0-1.36-1.08,10.66,10.66,0,0,0-4.63-.69H215.49c-2.4,0-4.12.63-5.13,1.89l-2.07,2.62c-.51.64-1.54,1-3.06,1Z"/><path class="cls-4" d="M171.24,24.5c0-8.62-7.51-16.74-16.74-16.74h-39v2.87a4.28,4.28,0,0,0,4.28,4.28h34.64a9.67,9.67,0,0,1,9.67,9.67v2.95H120.32v7.16h43.76v4.23a9.64,9.64,0,0,1-9.64,9.64H119.82a4.32,4.32,0,0,0-4.32,4.32v2.83h38.79a16.86,16.86,0,0,0,11-4.16,17.3,17.3,0,0,0,5.95-12.43Z"/><path class="cls-4" d="M232.4,43.68V39.57a12,12,0,0,0-12-12H184.69v-3a9.62,9.62,0,0,1,9.62-9.61H228.1a4.29,4.29,0,0,0,4.3-4.3V7.75H194.31a16.76,16.76,0,0,0-16.77,16.76V38.94a16.77,16.77,0,0,0,16.77,16.77h26.06A12,12,0,0,0,232.4,43.68Zm-7.15,0a4.89,4.89,0,0,1-4.88,4.88H194.31a9.64,9.64,0,0,1-9.62-9.62V34.69h35.68a4.89,4.89,0,0,1,4.88,4.88Z"/><path class="cls-4" d="M255.44,55.71h21.27a16.79,16.79,0,0,0,16.77-16.77V24.51A16.78,16.78,0,0,0,276.71,7.75H255.44a16.78,16.78,0,0,0-16.76,16.76V38.94A16.78,16.78,0,0,0,255.44,55.71Zm-9.61-31.2a9.62,9.62,0,0,1,9.61-9.61h21.27a9.62,9.62,0,0,1,9.61,9.61V38.94a9.63,9.63,0,0,1-9.61,9.62H255.44a9.63,9.63,0,0,1-9.61-9.62Z"/><path class="cls-4" d="M300.51,45.78a11.21,11.21,0,0,0-.46,2.84A6.12,6.12,0,0,0,303,54a10.4,10.4,0,0,0,5.84,1.59h35.54a12.33,12.33,0,0,0,6.34-1.3,5.69,5.69,0,0,0,3.05-4.93,17,17,0,0,0-.55-4l-2.73-11.16h-6.22l3.09,12.07a4.59,4.59,0,0,1,.14,1.2,2,2,0,0,1-1.38,2.06,11,11,0,0,1-2.85.19H309.08a3,3,0,0,1-1.43-.4,2.12,2.12,0,0,1-1.19-2.05,6.07,6.07,0,0,1,.23-1.56l4.76-17.18h39.09a4,4,0,0,0,4-4V23H299v5.61h6.19Z"/><path class="cls-4" d="M353.62,7.77H300.08v5.52h49.54a4,4,0,0,0,4-4Z"/><path class="cls-4" d="M360.6,55.44V13A5.07,5.07,0,0,1,362,9.11a4.89,4.89,0,0,1,3.42-1.32h7.62a5.61,5.61,0,0,1,4.08,1.35,4.21,4.21,0,0,1,1.47,3v14a4.21,4.21,0,0,1-1.41,3.29,2.3,2.3,0,0,1,1.29,1.46,7.63,7.63,0,0,1,.12,1.52V47.26a4.69,4.69,0,0,1-1.34,3.39,5.08,5.08,0,0,1-3.63,1.44h-3.88V46.87h1.53c1.18,0,1.77-.57,1.77-1.69V33.82q0-1.74-1.62-1.74h-2.22V26.85h2.07c1.18,0,1.77-.51,1.77-1.52V14.71c0-1.15-.65-1.72-1.95-1.72H368c-1.2,0-1.8.55-1.8,1.63V55.44Zm20.82-9.56V40.71h15.9V33.26h-7.17q-7.62,0-7.62-6.13a9.14,9.14,0,0,1,.36-2.58l2.37-8.13h-3.84v-5.2h5.43l1-3.51h5.64l-1,3.51h23.45v1.2a4,4,0,0,1-4,4h-21q-.54,2-2,6.89a8.17,8.17,0,0,0-.39,2.25,2,2,0,0,0,.66,1.52A4.12,4.12,0,0,0,392,28h5.34V20.47H403V28h13v1.28a4,4,0,0,1-4,4h-9v7.45h12.9v1.18a4,4,0,0,1-4,4H403v9.53h-5.72V45.88Z"/><path class="cls-4" d="M366.35,55.64h-6V13a5.29,5.29,0,0,1,1.5-4,5.09,5.09,0,0,1,3.56-1.38h7.62A5.86,5.86,0,0,1,377.3,9a4.43,4.43,0,0,1,1.53,3.15v14a4.42,4.42,0,0,1-1.28,3.25,2.34,2.34,0,0,1,1.15,1.46,7.32,7.32,0,0,1,.13,1.56V47.26a4.87,4.87,0,0,1-1.4,3.53,5.3,5.3,0,0,1-3.77,1.5h-4.08V46.67h1.73c1.07,0,1.57-.48,1.57-1.49V33.82c0-1-.45-1.54-1.42-1.54H369V26.65h2.27c1.07,0,1.57-.42,1.57-1.32V14.71c0-1-.56-1.52-1.75-1.52H368c-1.09,0-1.6.46-1.6,1.43Zm-5.55-.4H366V14.62c0-.83.35-1.83,2-1.83h3.18c1.78,0,2.15,1,2.15,1.92V25.33c0,.79-.34,1.72-2,1.72h-1.87v4.83h2c1.19,0,1.82.67,1.82,1.94V45.18a1.73,1.73,0,0,1-2,1.89H370v4.82h3.68a4.86,4.86,0,0,0,3.48-1.38,4.48,4.48,0,0,0,1.29-3.25V32.39a7.26,7.26,0,0,0-.12-1.48,2.14,2.14,0,0,0-1.19-1.33l-.24-.13.2-.19a4,4,0,0,0,1.35-3.14v-14A4.08,4.08,0,0,0,377,9.28,5.48,5.48,0,0,0,373.08,8h-7.62a4.75,4.75,0,0,0-3.29,1.27A4.89,4.89,0,0,0,360.8,13Zm42.44.37h-6.13V46.08H381.22V40.51h15.89v-7h-7c-5.19,0-7.82-2.13-7.82-6.33a9.62,9.62,0,0,1,.36-2.64l2.3-7.87h-3.77V11h5.48l1-3.51h6l-1,3.51h23.39v1.4a4.2,4.2,0,0,1-4.2,4.2H391.08c-.37,1.35-1,3.62-2,6.75a7.68,7.68,0,0,0-.38,2.19,1.74,1.74,0,0,0,.59,1.37,4,4,0,0,0,2.69.85h5.13V20.27h6.13v7.51h13v1.48a4.2,4.2,0,0,1-4.2,4.2h-8.79v7h12.9v1.37a4.2,4.2,0,0,1-4.19,4.2h-8.71Zm-5.72-.4h5.32V45.68H412a3.8,3.8,0,0,0,3.79-3.8v-1h-12.9V33.06H412a3.8,3.8,0,0,0,3.8-3.8V28.18h-13V20.67h-5.32v7.51H392a4.35,4.35,0,0,1-3-.95,2.17,2.17,0,0,1-.72-1.67,8.55,8.55,0,0,1,.39-2.31c1-3.24,1.68-5.55,2-6.88l0-.15h21.17a3.8,3.8,0,0,0,3.8-3.8v-1H392.22l1-3.51H388l-1,3.51h-5.38v4.8h3.9l-2.44,8.38a9.2,9.2,0,0,0-.35,2.53c0,4,2.42,5.93,7.42,5.93h7.37v7.85h-15.9v4.77h15.9Z"/><path class="cls-4" d="M115.89,79.87V76.69h33.65v.68a2.5,2.5,0,0,1-2.5,2.5H123.22l-2.94,10.8a3.8,3.8,0,0,0-.15,1,1.48,1.48,0,0,0,.81,1.41,1.88,1.88,0,0,0,1,.27h20.89a6.87,6.87,0,0,0,1.79-.13,1.38,1.38,0,0,0,1-1.43,3.21,3.21,0,0,0-.09-.78l-1.85-7.31h3.49l1.65,6.82a10.48,10.48,0,0,1,.33,2.43,3.39,3.39,0,0,1-1.79,2.93,7.31,7.31,0,0,1-3.8.78H121.72a6.1,6.1,0,0,1-3.49-1,3.67,3.67,0,0,1-1.71-3.23,6.85,6.85,0,0,1,.27-1.72l2.94-10.89Zm.64-9.51V67.23H149v.63a2.5,2.5,0,0,1-2.5,2.5Z"/><path class="cls-4" d="M143.46,96.87H121.72a6.32,6.32,0,0,1-3.6-1,3.88,3.88,0,0,1-1.81-3.4,7,7,0,0,1,.29-1.78l2.87-10.63h-3.78V76.49h34.05v.88a2.7,2.7,0,0,1-2.7,2.7H123.37l-2.9,10.65a3.84,3.84,0,0,0-.14,1,1.3,1.3,0,0,0,.7,1.24,1.75,1.75,0,0,0,.86.24h20.89a7.16,7.16,0,0,0,1.73-.11,1.2,1.2,0,0,0,.81-1.25,3.33,3.33,0,0,0-.08-.73l-1.91-7.56h3.9l1.68,7a10.86,10.86,0,0,1,.34,2.48,3.6,3.6,0,0,1-1.89,3.1A7.46,7.46,0,0,1,143.46,96.87Zm-27.37-17.2H120l-.07.25L117,90.81a6.9,6.9,0,0,0-.26,1.67,3.47,3.47,0,0,0,1.62,3.07,6,6,0,0,0,3.38.92h21.74a7.1,7.1,0,0,0,3.69-.75,3.18,3.18,0,0,0,1.7-2.76,10,10,0,0,0-.33-2.38l-1.6-6.67h-3.08L145.62,91a3.2,3.2,0,0,1,.1.83,1.57,1.57,0,0,1-1.08,1.62,6.3,6.3,0,0,1-1.86.14H121.89a2.16,2.16,0,0,1-1-.29,1.69,1.69,0,0,1-.91-1.59,4.1,4.1,0,0,1,.15-1.06l3-11h24a2.3,2.3,0,0,0,2.3-2.3v-.48H116.09Zm30.39-9.11H116.33V67h32.84v.83A2.7,2.7,0,0,1,146.48,70.56Zm-29.75-.4h29.75a2.3,2.3,0,0,0,2.29-2.3v-.43h-32Z"/><path class="cls-4" d="M249.08,80.69V78.21a2.77,2.77,0,0,1,.81-2.09,3.08,3.08,0,0,1,2.26-.89h12.11v-1h1.9V71.11a2.41,2.41,0,0,0,1.5-.84,7.75,7.75,0,0,0,.8-3.3H272l-.12,1.22h11v.6a2.51,2.51,0,0,1-2.51,2.51h-2.26v3.07h-3.38V71.3H271q-.78,2.15-3.8,3h.4v1h11.62q3.58,0,3.58,3.24v2.22H280.9a13.26,13.26,0,0,1,.15,2.21v2a2.53,2.53,0,0,1-.49,1.82,3.91,3.91,0,0,1-2.63.63H254.29v1.43h21.33c2.65,0,4.17.12,4.59.38a1.69,1.69,0,0,1,.68.68,3.73,3.73,0,0,1,.16,1.31v3.37a2.67,2.67,0,0,1-.33,1.52c-.35.45-1.2.68-2.56.68H254.55a5.25,5.25,0,0,1-2.4-.37,2.76,2.76,0,0,1-1.35-2.48V83.2a4.62,4.62,0,0,1,.26-1.76,3.42,3.42,0,0,1,.53-.75Zm0-6.32V71.12a2.33,2.33,0,0,0,1.5-.82,7.23,7.23,0,0,0,.84-3.33h3.51l-.15,1.22h11v.6a2.51,2.51,0,0,1-2.51,2.51H261v3.07h-3.38V71.3H254a5.63,5.63,0,0,1-2,2.25A6.9,6.9,0,0,1,249.08,74.37Zm3.38,5.6a7.3,7.3,0,0,1,1.46-.23h25.49l0-.45a1.06,1.06,0,0,0-.48-.91,1,1,0,0,0-.38-.17H254.71a4.2,4.2,0,0,0-1.7.19,1.05,1.05,0,0,0-.56,1Zm1.83,4.47H276.1a3.33,3.33,0,0,0,1.08-.11.55.55,0,0,0,.27-.55V83.5a.68.68,0,0,0-.33-.63,2.73,2.73,0,0,0-1-.11H255.79c-.77,0-1.22.09-1.35.25a1.08,1.08,0,0,0-.15.68Zm0,7.19v1.26c0,.44.09.72.27.85a4.7,4.7,0,0,0,1.5.12h19.75a5.51,5.51,0,0,0,1.29-.07.82.82,0,0,0,.35-.78v-.58c0-.53-.29-.8-.86-.8Z"/><path class="cls-4" d="M278.16,96.91H254.55a5.22,5.22,0,0,1-2.5-.4,3,3,0,0,1-1.45-2.65V83.2a4.82,4.82,0,0,1,.27-1.84,3.42,3.42,0,0,1,.3-.47h-2.29V78.21a3,3,0,0,1,.87-2.24,3.3,3.3,0,0,1,2.4-.94h11.91v-1H266V71l.16,0a2.19,2.19,0,0,0,1.38-.75,8,8,0,0,0,.77-3.21v-.18h3.89L272.05,68h11v.8a2.71,2.71,0,0,1-2.71,2.71h-2.06v3.07h-3.78V71.5h-3.31a5.07,5.07,0,0,1-3.34,2.79V75h11.42c2.51,0,3.78,1.15,3.78,3.44v2.42h-1.9a16,16,0,0,1,.11,2v2a2.61,2.61,0,0,1-.56,2,4,4,0,0,1-2.76.69H254.49v1h21.13c3.61,0,4.41.23,4.69.41a1.85,1.85,0,0,1,.76.77,3.65,3.65,0,0,1,.18,1.39v3.37a2.76,2.76,0,0,1-.37,1.63C280.48,96.66,279.59,96.91,278.16,96.91ZM249.28,80.49H252l-.27.33a3.5,3.5,0,0,0-.5.7A4.42,4.42,0,0,0,251,83.2V93.86a2.54,2.54,0,0,0,1.26,2.31,5.08,5.08,0,0,0,2.29.34h23.61c1.6,0,2.19-.33,2.4-.61a2.48,2.48,0,0,0,.29-1.39V91.14a3,3,0,0,0-.15-1.22,1.42,1.42,0,0,0-.6-.6c-.26-.16-1.25-.35-4.48-.35H254.09V87.14h23.84a3.84,3.84,0,0,0,2.49-.57,2.43,2.43,0,0,0,.43-1.68v-2a14.18,14.18,0,0,0-.14-2.18l0-.23h2v-2c0-2-1.11-3-3.38-3H267.44v-1h-3v1H252.15a2.89,2.89,0,0,0-2.12.83,2.58,2.58,0,0,0-.75,1.95Zm17.08-9.23v3l.83-.23c1.93-.52,3.16-1.48,3.66-2.84l0-.13h4v3.07h3V71.1h2.46a2.32,2.32,0,0,0,2.31-2.31v-.4h-11l.13-1.22h-3.09a7.63,7.63,0,0,1-.81,3.21A2.38,2.38,0,0,1,266.36,71.26Zm9.45,22.8H256.06c-1.21,0-1.49-.07-1.61-.15a1.18,1.18,0,0,1-.36-1V91.43h22.5a.93.93,0,0,1,1.06,1V93a1,1,0,0,1-.45,1A4.07,4.07,0,0,1,275.81,94.06Zm-21.32-2.23v1.06c0,.36.07.6.19.69a5.61,5.61,0,0,0,1.38.08h19.75a6.4,6.4,0,0,0,1.21,0c.05,0,.23-.13.23-.6v-.58c0-.42-.2-.6-.66-.6Zm21.61-7.19h-22v-1a1.27,1.27,0,0,1,.19-.81c.12-.15.4-.32,1.51-.32H276.1c.79,0,1,.07,1.12.14a.85.85,0,0,1,.43.8v.28a.75.75,0,0,1-.38.73A2.92,2.92,0,0,1,276.1,84.64Zm-21.61-.4H276.1a3.19,3.19,0,0,0,1-.09c.06,0,.15-.11.15-.37V83.5A.47.47,0,0,0,277,83a2.56,2.56,0,0,0-.92-.08H255.79c-1,0-1.19.16-1.2.17a1,1,0,0,0-.1.56Zm-2.22-4,0-.8a1.27,1.27,0,0,1,.67-1.19c.15-.1.5-.22,1.8-.22h23.82a1.16,1.16,0,0,1,.5.21,1.26,1.26,0,0,1,.56,1.06l0,.67H253.92a6.67,6.67,0,0,0-1.41.22Zm2.44-1.81a3.74,3.74,0,0,0-1.59.16.89.89,0,0,0-.48.84v.31a6.41,6.41,0,0,1,1.27-.18H279.2V79.3a.86.86,0,0,0-.39-.75.7.7,0,0,0-.31-.14H254.71Zm-5.83-3.82V71l.16,0a2.15,2.15,0,0,0,1.38-.75,7,7,0,0,0,.8-3.23l0-.18h3.91L255,68h11v.8a2.71,2.71,0,0,1-2.71,2.71h-2.1v3.07h-3.78V71.5h-3.28a5.69,5.69,0,0,1-2,2.22,7.12,7.12,0,0,1-3.06.85Zm8.95-.42h3V71.1h2.5a2.31,2.31,0,0,0,2.3-2.31v-.4H254.56l.14-1.22h-3.1a7,7,0,0,1-.86,3.26,2.44,2.44,0,0,1-1.46.85v2.87a6.5,6.5,0,0,0,2.68-.77,5.49,5.49,0,0,0,1.9-2.18l0-.1h3.92Z"/><path class="cls-4" d="M293.51,95.87V92.64h3V82.57l-3,0,0-3.18h3V71.18h-3V68H303v.73a2.5,2.5,0,0,1-2.5,2.5h-.6v8.23H303v.66a2.5,2.5,0,0,1-2.5,2.5h-.6V92.64H303v.73a2.5,2.5,0,0,1-2.5,2.5Zm11.23.89V93.53h9.69V89.8h-8.77V86.57h8.77V83.72h-5.92A3.12,3.12,0,0,1,306,82.64a2.77,2.77,0,0,1-.65-1.43,9.22,9.22,0,0,1-.06-1.19V70.57a3.53,3.53,0,0,1,.93-2.66,3.27,3.27,0,0,1,2.36-.83h14a4.72,4.72,0,0,1,3.19.87,3,3,0,0,1,.84,2.3V80.53a3.14,3.14,0,0,1-.89,2.34,3,3,0,0,1-2.16.84h-5.82v2.85h8.78v.73a2.5,2.5,0,0,1-2.5,2.5h-6.28v3.73h9.46v.73a2.5,2.5,0,0,1-2.5,2.5Zm3.95-23h5.74V70.3H310.1a1.64,1.64,0,0,0-1.14.35,1.41,1.41,0,0,0-.27,1Zm5.74,6.68V77h-5.74v1.9a2,2,0,0,0,.29,1.26,1.35,1.35,0,0,0,1,.31Zm3.38-6.68h5.57V71.65q0-1.38-1.83-1.38l-3.74,0Zm0,6.68h4.07a1.65,1.65,0,0,0,1.19-.31,1.67,1.67,0,0,0,.31-1.17V77h-5.57Z"/><path class="cls-4" d="M324.77,97H304.54V93.33h9.69V90h-8.77V86.37h8.77V83.92h-5.72a3.33,3.33,0,0,1-2.64-1.14,2.91,2.91,0,0,1-.7-1.54,9.46,9.46,0,0,1-.06-1.21V70.57a3.7,3.7,0,0,1,1-2.8,3.49,3.49,0,0,1,2.5-.89h14a5,5,0,0,1,3.34.92,3.16,3.16,0,0,1,.9,2.45V80.53a3.33,3.33,0,0,1-.95,2.48,3.15,3.15,0,0,1-2.3.9H318v2.45h8.78v.93a2.71,2.71,0,0,1-2.7,2.7H318v3.33h9.46v.93A2.7,2.7,0,0,1,324.77,97Zm-19.83-.4h19.83a2.31,2.31,0,0,0,2.3-2.3v-.53H317.6V89.6h6.49a2.31,2.31,0,0,0,2.3-2.3v-.53H317.6V83.52h6a2.78,2.78,0,0,0,2-.78,3,3,0,0,0,.83-2.2V70.25a2.79,2.79,0,0,0-.77-2.15,4.57,4.57,0,0,0-3.07-.82h-14a3.08,3.08,0,0,0-2.22.78,3.31,3.31,0,0,0-.87,2.51V80a11.69,11.69,0,0,0,.05,1.17,2.58,2.58,0,0,0,.62,1.32,2.87,2.87,0,0,0,2.33,1h6.12v3.25h-8.77V89.6h8.77v4.13h-9.69Zm-4.47-.49h-7.16V92.44h3V82.77l-3,0,0-3.58h3V71.38h-3V67.75h9.86v.93a2.71,2.71,0,0,1-2.7,2.7h-.4v7.83h3.1v.86a2.7,2.7,0,0,1-2.7,2.7h-.4v9.67h3.1v.93A2.7,2.7,0,0,1,300.47,96.07Zm-6.76-.4h6.76a2.3,2.3,0,0,0,2.3-2.3v-.53h-3.1V82.37h.8a2.3,2.3,0,0,0,2.3-2.3v-.46h-3.1V71h.8a2.31,2.31,0,0,0,2.3-2.3v-.53h-9.06V71h3v8.63h-3l0,2.78,3,0V92.84h-3Zm28.17-15H317.6V76.77h6V79a1.82,1.82,0,0,1-.37,1.31A1.79,1.79,0,0,1,321.88,80.64Zm-3.87-.4h3.87c.67,0,.93-.13,1-.25a1.47,1.47,0,0,0,.26-1V77.17H318Zm-3.38.4H310a1.49,1.49,0,0,1-1.18-.38,2.07,2.07,0,0,1-.34-1.39v-2.1h6.14Zm-5.74-3.47v1.7c0,.72.13,1,.24,1.12a1.16,1.16,0,0,0,.88.25h4.22V77.17ZM323.58,74h-6V70.11l3.95,0a2.22,2.22,0,0,1,1.64.51,1.45,1.45,0,0,1,.39,1.07Zm-5.57-.4h5.17V71.65a1.08,1.08,0,0,0-.27-.79,1.91,1.91,0,0,0-1.36-.39l-3.54,0Zm-3.38.4h-6.14V71.65a1.51,1.51,0,0,1,.34-1.14,1.76,1.76,0,0,1,1.27-.41h4.53Zm-5.74-.4h5.34V70.5H310.1a1.41,1.41,0,0,0-1,.3c-.09.09-.21.31-.21.85Z"/><path class="cls-4" d="M337.9,87.89V84.61h15.24V70.25H337.9V67h33.87v.73a2.5,2.5,0,0,1-2.5,2.5H356.51V84.61h15.26v.79a2.49,2.49,0,0,1-2.5,2.49H356.51v8.87h-3.37V87.89Zm2.7-16H344l.49,4.36a5.75,5.75,0,0,0,.88,3,2.7,2.7,0,0,0,1.76.7v3.24a6.54,6.54,0,0,1-4.24-1.76,5.82,5.82,0,0,1-1.61-3.58Zm21.94,11.26V79.94a2.94,2.94,0,0,0,1.87-.79,5.22,5.22,0,0,0,.76-2.55l.53-4.71h3.4l-.58,5.2a9.79,9.79,0,0,1-.68,3,5.35,5.35,0,0,1-2.7,2.55A6.7,6.7,0,0,1,362.54,83.15Z"/><path class="cls-4" d="M356.71,97h-3.77V88.09H337.7V84.41h15.24v-14H337.7V66.82H372v.93a2.7,2.7,0,0,1-2.7,2.7H356.71v14H372v1a2.7,2.7,0,0,1-2.7,2.69H356.71Zm-3.37-.4h3V87.69h13a2.3,2.3,0,0,0,2.3-2.29v-.59H356.31V70.05h13a2.31,2.31,0,0,0,2.3-2.3v-.53H338.1v2.83h15.24V84.81H338.1v2.88h15.24Zm-6-13.16-.22,0a6.76,6.76,0,0,1-4.36-1.82,6,6,0,0,1-1.67-3.69l-.7-6.18h3.8l.51,4.54a5.57,5.57,0,0,0,.83,2.87,2.48,2.48,0,0,0,1.62.64h.19Zm-6.5-11.31.65,5.73A5.57,5.57,0,0,0,343,81.28a6.39,6.39,0,0,0,3.9,1.69V80.12a2.77,2.77,0,0,1-1.7-.74,5.63,5.63,0,0,1-.93-3.1l-.48-4.19Zm21.51,11.26V79.76l.17,0a2.75,2.75,0,0,0,1.74-.72,5,5,0,0,0,.72-2.44l.55-4.89h3.8l-.61,5.42a9.69,9.69,0,0,1-.69,3,5.53,5.53,0,0,1-2.8,2.64,6.87,6.87,0,0,1-2.67.58Zm.4-3.24v2.83a6.28,6.28,0,0,0,2.31-.53A5.18,5.18,0,0,0,367.66,80a9.81,9.81,0,0,0,.66-2.89l.56-5h-3l-.51,4.54a5.26,5.26,0,0,1-.81,2.65A3,3,0,0,1,362.74,80.11Z"/><path class="cls-4" d="M385.67,67.15h4l-3.07,7.78a2.28,2.28,0,0,0-.16.8c0,.7.55,1,1.66,1H410.2c1.43,0,2.14-.53,2.14-1.57a2,2,0,0,0-.13-.67l-1.4-4.17h3.47c.18.56.45,1.43.82,2.62a13.27,13.27,0,0,1,.82,3.21,3.5,3.5,0,0,1-2.06,3.06,9.32,9.32,0,0,1-4.39.8h-21.9a7.23,7.23,0,0,1-3.87-.75,2.82,2.82,0,0,1-1.32-2.48,6.89,6.89,0,0,1,.5-2.29Zm-2.76,25.79V86.25q0-3.45,3.8-3.45h24.66a5,5,0,0,1,3.12.77,2.53,2.53,0,0,1,.9,1.24,5.45,5.45,0,0,1,.13,1.44v7.28a3.17,3.17,0,0,1-.6,2.1,3.07,3.07,0,0,1-1.63,1,7.19,7.19,0,0,1-1.57.12H386.8a4.08,4.08,0,0,1-3.47-1.34A4.85,4.85,0,0,1,382.91,92.94Zm4.57.54H411a1.16,1.16,0,0,0,1-.35,1.46,1.46,0,0,0,.17-.84v-5.2c0-.67-.36-1-1.08-1H387.33c-.69,0-1,.31-1,.94v5.59C386.29,93.19,386.69,93.48,387.48,93.48Z"/><path class="cls-4" d="M411.72,97H386.8a4.28,4.28,0,0,1-3.63-1.42,4.92,4.92,0,0,1-.46-2.6V86.25c0-2.42,1.35-3.65,4-3.65h24.66a5.3,5.3,0,0,1,3.25.81,2.76,2.76,0,0,1,1,1.34,5.82,5.82,0,0,1,.14,1.5v7.28a3.35,3.35,0,0,1-.65,2.23,3.21,3.21,0,0,1-1.73,1.07A7,7,0,0,1,411.72,97Zm-25-14c-2.42,0-3.6,1.06-3.6,3.25v6.69a4.38,4.38,0,0,0,.39,2.36,3.89,3.89,0,0,0,3.3,1.26h24.92a6.67,6.67,0,0,0,1.52-.12,2.85,2.85,0,0,0,1.52-.94,3,3,0,0,0,.56-2V86.25a5.57,5.57,0,0,0-.12-1.39,2.4,2.4,0,0,0-.83-1.14,5,5,0,0,0-3-.72ZM411,93.68H387.48c-1.15,0-1.39-.58-1.39-1.07V87c0-.74.44-1.14,1.24-1.14h23.73a1.13,1.13,0,0,1,1.28,1.21v5.2a1.58,1.58,0,0,1-.21,1A1.33,1.33,0,0,1,411,93.68Zm-23.68-7.4c-.58,0-.84.23-.84.74v5.59c0,.31.11.67,1,.67H411a1,1,0,0,0,.81-.27,1.36,1.36,0,0,0,.12-.72v-5.2c0-.56-.27-.81-.88-.81Zm22.14-6h-21.9a7.29,7.29,0,0,1-4-.79,3,3,0,0,1-1.41-2.64,6.94,6.94,0,0,1,.51-2.35L385.53,67H390l-3.18,8a2,2,0,0,0-.15.73c0,.21,0,.85,1.46.85H410.2c1.74,0,1.94-.78,1.94-1.37a1.77,1.77,0,0,0-.12-.6l-1.49-4.44h3.89l.05.14c.18.56.45,1.43.82,2.62a13.2,13.2,0,0,1,.83,3.27A3.7,3.7,0,0,1,414,79.43,9.5,9.5,0,0,1,409.47,80.26ZM385.81,67.35l-2.75,7.27a6.59,6.59,0,0,0-.48,2.21,2.61,2.61,0,0,0,1.23,2.31,7,7,0,0,0,3.76.72h21.9a9.07,9.07,0,0,0,4.29-.78,3.28,3.28,0,0,0,2-2.88,13.09,13.09,0,0,0-.81-3.14q-.51-1.65-.78-2.49h-3.05l1.32,3.91a2.29,2.29,0,0,1,.14.73c0,.81-.41,1.77-2.34,1.77H388.08c-1.54,0-1.86-.68-1.86-1.25a2.31,2.31,0,0,1,.18-.88l3-7.5Z"/></svg>